#!OML:ASF H:\Dans Jumps\Project 1\Capture day 1\Session 1\subject.ASF
:FULLY-SPECIFIED
:DEGREES
643
root 0.394972 17.7114 10.9752 6.10694 -0.441541 -1.32215
lowerback -3.80662 0.13292 -0.0573836
upperback 2.86653 0.12497 1.19429
thorax 5.0978 0.0366585 1.27904
lowerneck -12.6164 0.5679 -1.29995
upperneck 29.0474 1.04894 0.3395
head 11.5275 0.374356 0.491281
rclavicle 1.06847e-015 -2.18663e-015
rhumerus -23.3561 -16.189 -82.07
rradius 25.4615
rwrist 33.4031
rhand -17.7425 -26.1519
rfingers 7.12502
rthumb 8.51887 -55.96
lclavicle 1.06847e-015 -2.18663e-015
lhumerus -20.0578 -1.13328 89.271
lradius 18.418
lwrist 3.46353
lhand -24.1712 -6.42701
lfingers 7.12502
lthumb 2.31202 23.5402
rfemur -13.3926 -1.64178 20.1922
rtibia 20.8218
rfoot -13.3057 0.624233
rtoes 13.7878
lfemur -10.8812 6.25897 -17.4585
ltibia 17.3049
lfoot -9.87354 4.79953
ltoes -8.15388
644
root 0.395313 17.7115 10.9772 6.12073 -0.464071 -1.33466
lowerback -3.79819 0.135621 -0.0564781
upperback 2.86676 0.128773 1.18999
thorax 5.09315 0.0386746 1.27434
lowerneck -12.6309 0.572115 -1.30896
upperneck 29.1954 1.05818 0.340862
head 11.588 0.376584 0.495522
rclavicle 1.98785e-016 -8.34896e-015
rhumerus -23.4869 -16.3857 -81.986
rradius 25.2385
rwrist 33.6532
rhand -17.6455 -26.1427
rfingers 7.12502
rthumb 8.61241 -55.947
lclavicle 1.98785e-016 -8.34896e-015
lhumerus -20.0958 -0.777428 89.0574
lradius 18.2821
lwrist 3.26503
lhand -24.0746 -6.00691
lfingers 7.12502
lthumb 2.4053 23.9593
rfemur -13.3993 -1.61863 20.2051
rtibia 20.8117
rfoot -13.3045 0.618333
rtoes 13.787
lfemur -10.8884 6.26124 -17.446
ltibia 17.3101
lfoot -9.88106 4.82129
ltoes -8.14762
645
root 0.395703 17.7116 10.9791 6.13536 -0.486975 -1.34721
lowerback -3.7899 0.138555 -0.0536762
upperback 2.86816 0.132812 1.18453
thorax 5.08981 0.0408896 1.2674
lowerneck -12.6486 0.57464 -1.31635
upperneck 29.3487 1.06471 0.342142
head 11.6514 0.377692 0.499152
rclavicle -4.5969e-015 -7.7526e-015
rhumerus -23.615 -16.6011 -81.8928
rradius 25.0142
rwrist 33.923
rhand -17.5544 -26.1218
rfingers 7.12502
rthumb 8.7004 -55.9225
lclavicle -4.5969e-015 -7.7526e-015
lhumerus -20.1389 -0.416405 88.841
lradius 18.1653
lwrist 3.07511
lhand -23.9678 -5.50136
lfingers 7.12502
lthumb 2.5085 24.4636
rfemur -13.4078 -1.59665 20.218
rtibia 20.8027
rfoot -13.3028 0.613626
rtoes 13.7815
lfemur -10.8973 6.26783 -17.4339
ltibia 17.3174
lfoot -9.8895 4.83876
ltoes -8.13793
646
root 0.396081 17.7117 10.9809 6.15046 -0.509811 -1.35793
lowerback -3.78192 0.141091 -0.0525832
upperback 2.87222 0.136444 1.17802
thorax 5.08942 0.0428433 1.26032
lowerneck -12.6823 0.57878 -1.31518
upperneck 29.5122 1.07351 0.337556
head 11.7225 0.379912 0.4996
rclavicle 7.45443e-017 -5.36719e-015
rhumerus -23.7421 -16.83 -81.7905
rradius 24.7949
rwrist 34.2069
rhand -17.4608 -26.1001
rfingers 7.12502
rthumb 8.79069 -55.897
lclavicle 7.45443e-017 -5.36719e-015
lhumerus -20.1855 -0.0464048 88.6215
lradius 18.0595
lwrist 2.8808
lhand -23.8739 -4.99709
lfingers 7.12502
lthumb 2.59914 24.9668
rfemur -13.4185 -1.57233 20.2288
rtibia 20.7959
rfoot -13.3003 0.606121
rtoes 13.7756
lfemur -10.9071 6.27713 -17.4237
ltibia 17.3245
lfoot -9.89879 4.85135
ltoes -8.11082
